<?xml version="1.0" encoding="UTF-8" standalone="no"?>
<svg
   id="Layer_7"
   viewBox="0 0 256 256"
   data-name="Layer 7"
   version="1.1"
   sodipodi:docname="logo.svg"
   width="256"
   height="256"
   inkscape:version="1.2.2 (b0a8486541, 2022-12-01)"
   xmlns:inkscape="http://www.inkscape.org/namespaces/inkscape"
   xmlns:sodipodi="http://sodipodi.sourceforge.net/DTD/sodipodi-0.dtd"
   xmlns="http://www.w3.org/2000/svg"
   xmlns:svg="http://www.w3.org/2000/svg">
  <defs
     id="defs27" />
  <sodipodi:namedview
     id="namedview25"
     pagecolor="#ffffff"
     bordercolor="#000000"
     borderopacity="0.25"
     inkscape:showpageshadow="2"
     inkscape:pageopacity="0.0"
     inkscape:pagecheckerboard="0"
     inkscape:deskcolor="#d1d1d1"
     showgrid="false"
     inkscape:zoom="2.0058594"
     inkscape:cx="223.34567"
     inkscape:cy="224.59202"
     inkscape:window-width="2560"
     inkscape:window-height="1371"
     inkscape:window-x="0"
     inkscape:window-y="0"
     inkscape:window-maximized="1"
     inkscape:current-layer="Layer_7" />
  <path
     d="m 231.21755,71.115073 c -4.17,-23.6 -25.605,-45.035 -49.2,-49.2 -14.32,-2.395 -33.81,-4.615 -60.425,-4.64 -26.615002,-0.03 -46.105004,2.26 -60.425004,4.64 -23.6,4.16 -45.035,25.59 -49.2,49.2 -2.3950002,14.32 -4.6150002,33.809997 -4.6400002,60.424997 -0.03,26.615 2.26,46.105 4.6400002,60.425 4.17,23.6 25.605,45.035 49.2,49.2 14.32,2.395 33.810002,4.615 60.425004,4.64 26.615,0.03 46.105,-2.26 60.425,-4.64 23.6,-4.17 45.035,-25.605 49.2,-49.2 2.395,-14.32 4.615,-33.81 4.64,-60.425 0.03,-26.615 -2.285,-46.119997 -4.64,-60.424997 z"
     fill="#c1e1f3"
     id="path2"
     style="stroke-width:0.5" />
  <path
     d="m 121.59255,17.260073 c -26.615002,0.03 -46.105004,2.26 -60.425004,4.64 -23.6,4.175 -45.035,25.605 -49.2,49.215 -2.3950002,14.32 -4.6150002,33.809997 -4.6400002,60.424997 0.025,22.23 1.585,39.485 3.4900002,52.915 14.715,5.4 30.27,8.155 45.94,8.135 73.515004,0 133.120004,-59.6 133.120004,-133.119997 0.01,-12.525 -1.75,-24.985 -5.22,-37.015 -0.88,-0.205 -1.765,-0.39 -2.655,-0.55 -14.3,-2.39 -33.79,-4.62 -60.405,-4.645 z"
     fill="#cfecf9"
     id="path4"
     style="stroke-width:0.5" />
  <path
     d="m 233.27755,85.530073 c -0.64,-5.31 -1.345,-10.1 -2.06,-14.415 -4.17,-23.6 -25.605,-45.035 -49.2,-49.2 -14.32,-2.395 -33.81,-4.615 -60.425,-4.64 -26.615002,-0.03 -46.105004,2.26 -60.425004,4.64 -23.6,4.16 -45.035,25.59 -49.2,49.2 -0.72,4.315 -1.425,9.1 -2.0600002,14.405 0.2450002,-0.01 44.6000002,-2.225 111.7350042,-2.225 67.135,0 111.415,2.225 111.635,2.235 z"
     fill="#dd4247"
     id="path6"
     style="stroke-width:0.5" />
  <path
     d="m 187.62755,84.030073 c 1.485,-7.96 2.27,-16.165 2.27,-24.555 0,-12.845 -1.825,-25.255 -5.22,-37.005 -0.885,-0.205 -1.77,-0.395 -2.66,-0.555 -14.32,-2.395 -33.81,-4.615 -60.425,-4.64 -26.615002,-0.03 -46.105004,2.26 -60.425004,4.64 -23.6,4.16 -45.035,25.59 -49.2,49.2 -0.72,4.315 -1.425,9.1 -2.0600002,14.405 0.2450002,-0.01 44.6000002,-2.225 111.7350042,-2.225 25.765,0 48.155,0.33 65.985,0.73 z"
     fill="#e55353"
     id="path8"
     style="stroke-width:0.5" />
  <g
     fill="#34344f"
     id="g18"
     transform="matrix(0.5,0,0,0.5,-6.4074537,0.77507303)">
    <rect
       height="86.129997"
       rx="24.129999"
       width="48.259998"
       x="132.77"
       id="rect10"
       y="0" />
    <rect
       height="86.129997"
       rx="24.129999"
       width="48.259998"
       x="330.97"
       id="rect12"
       y="0" />
    <rect
       height="86.129997"
       rx="24.129999"
       width="48.259998"
       x="231.87"
       id="rect14"
       y="0" />
    <path
       d="m 181.7,374.18 c -1.08,6.12 -6.64,11.68 -12.76,12.76 -3.72,0.62 -8.77,1.2 -15.68,1.2 -6.9,0 -11.96,-0.59 -15.67,-1.2 -6.12,-1.08 -11.68,-6.64 -12.76,-12.76 -0.62,-3.72 -1.2,-8.77 -1.2,-15.68 0,-6.9 0.59,-11.96 1.2,-15.68 1.08,-6.12 6.64,-11.68 12.76,-12.76 3.71,-0.62 8.77,-1.2 15.67,-1.2 6.9,0 11.96,0.59 15.68,1.2 6.12,1.08 11.68,6.64 12.76,12.76 0.62,3.72 1.2,8.77 1.2,15.68 0,6.9 -0.59,11.96 -1.2,15.68 z m 0,-96.96 c -1.08,6.12 -6.64,11.68 -12.76,12.76 -3.72,0.62 -8.77,1.2 -15.68,1.2 -6.9,0 -11.96,-0.59 -15.67,-1.2 -6.12,-1.08 -11.68,-6.64 -12.76,-12.76 -0.62,-3.71 -1.2,-8.77 -1.2,-15.67 0,-6.9 0.59,-11.96 1.2,-15.68 1.08,-6.12 6.64,-11.68 12.76,-12.76 3.71,-0.62 8.77,-1.2 15.67,-1.2 6.9,0 11.96,0.59 15.68,1.2 6.12,1.08 11.68,6.64 12.76,12.76 0.62,3.72 1.2,8.77 1.2,15.68 0,6.9 -0.59,11.96 -1.2,15.67 z m 89.97,12.76 c -3.72,0.62 -8.77,1.2 -15.68,1.2 -6.9,0 -11.96,-0.59 -15.68,-1.2 -6.12,-1.08 -11.68,-6.64 -12.76,-12.76 -0.62,-3.71 -1.2,-8.77 -1.2,-15.67 0,-6.9 0.59,-11.96 1.2,-15.68 1.08,-6.12 6.64,-11.68 12.76,-12.76 3.71,-0.62 8.77,-1.2 15.68,-1.2 6.9,0 11.96,0.59 15.68,1.2 6.12,1.08 11.68,6.64 12.76,12.76 0.62,3.72 1.2,8.77 1.2,15.68 0,6.9 -0.59,11.96 -1.2,15.67 -1.08,6.12 -6.64,11.68 -12.76,12.76 z"
       id="path16" />
  </g>
  <path
     d="m 191.64255,140.87507 c -32.005,0 -57.95,25.945 -57.95,57.95 0,32.005 25.945,57.95 57.95,57.95 32.005,0 57.95,-25.945 57.95,-57.95 0,-32.005 -25.945,-57.95 -57.95,-57.95 z"
     fill="#f9973e"
     id="path20"
     style="stroke-width:0.5" />
  <path
     d="m 219.51255,217.88007 c -2.09,3.06 -5.48,4.705 -8.925,4.705 -2.1,0 -4.225,-0.61 -6.09,-1.885 l -18.95,-12.955 c -2.945,-2.015 -4.705,-5.35 -4.705,-8.92 v -27.99 c 0,-5.965 4.835,-10.805 10.805,-10.805 5.97,0 10.805,4.835 10.805,10.805 v 22.29 l 14.245,9.74 c 4.925,3.365 6.19,10.09 2.82,15.015 z"
     fill="#ffffff"
     id="path22"
     style="stroke-width:0.5" />
</svg>
